<svg xmlns="http://www.w3.org/2000/svg" xmlns:xlink="http://www.w3.org/1999/xlink" width="300" height="400"><g transform="translate(-207 -311) scale(.89332)"><circle cx="400" cy="572.4" r="160" fill="#fff" stroke="#000" stroke-linejoin="round" stroke-width="10"/><circle cx="400" cy="572.4" r="145" fill="#000037" stroke="#000037" stroke-linejoin="round" stroke-width="10"/><path id="a" fill="none" fill-rule="evenodd" stroke="#fff" stroke-dasharray="none" stroke-linecap="round" stroke-linejoin="miter" stroke-miterlimit="4" stroke-opacity="1" stroke-width="9" d="M392 496c-8-82 24-82 16 0"/><g transform="translate(-31 -64)"><use xlink:href="#a" width="100%" height="100%" transform="rotate(20 230 692)"/><use xlink:href="#a" width="100%" height="100%" transform="rotate(40 326 646)"/><use xlink:href="#a" width="100%" height="100%" transform="rotate(60 359 631)"/><use xlink:href="#a" width="100%" height="100%" transform="rotate(80 376 622)"/><use xlink:href="#a" width="100%" height="100%" transform="rotate(100 388 617)"/><use xlink:href="#a" width="100%" height="100%" transform="rotate(120 396 613)"/><use xlink:href="#a" width="100%" height="100%" transform="rotate(140 403 610)"/><use xlink:href="#a" width="100%" height="100%" transform="rotate(160 410 607)"/><use xlink:href="#a" width="100%" height="100%" transform="rotate(180 415 604)"/><use xlink:href="#a" width="100%" height="100%" transform="rotate(-160 421 601)"/><use xlink:href="#a" width="100%" height="100%" transform="rotate(-140 427 598)"/><use xlink:href="#a" width="100%" height="100%" transform="rotate(-120 434 595)"/><use xlink:href="#a" width="100%" height="100%" transform="rotate(-100 443 591)"/><use xlink:href="#a" width="100%" height="100%" transform="rotate(-80 454 585)"/><use xlink:href="#a" width="100%" height="100%" transform="rotate(-60 472 577)"/><use xlink:href="#a" width="100%" height="100%" transform="rotate(-40 505 561)"/><use xlink:href="#a" width="100%" height="100%" transform="rotate(-20 601 516)"/></g><circle cx="400" cy="572.4" r="84.5" fill="#fff" stroke="#000037" stroke-linejoin="round" stroke-width="10.2"/><circle cx="400" cy="572.4" r="72.3" fill="#b93c3c"/><g id="c"><path fill="none" fill-rule="evenodd" stroke="#fff" stroke-width="23.1" d="M401 554c-3-10-29-32-1-34 29 2 1 24-2 34"/><path fill="none" fill-rule="evenodd" stroke="#b93c3c" stroke-linecap="round" stroke-linejoin="round" stroke-width="6" d="M400 555v-25"/><circle cx="400" cy="527.8" r="4.8" fill="#b93c3c" stroke-linecap="round" stroke-linejoin="round" stroke-width="3"/><path id="b" fill="none" fill-rule="evenodd" stroke="#b93c3c" stroke-dasharray="none" stroke-linecap="round" stroke-linejoin="miter" stroke-miterlimit="4" stroke-opacity="1" stroke-width="4" d="m405 557 6-16"/><use xlink:href="#b" width="100%" height="100%" transform="matrix(-1 0 0 1 800 0)"/></g><circle cx="400" cy="572.4" r="16" fill="#fff" stroke="#b93c3c" stroke-linecap="round" stroke-linejoin="round" stroke-width="6.7"/><circle cx="400" cy="572.4" r="8.5" fill="#b93c3c"/><use xlink:href="#c" id="d" width="100%" height="100%" x="0" y="0" transform="rotate(-72 400 572)"/><use xlink:href="#d" id="e" width="100%" height="100%" x="0" y="0" transform="rotate(-72 400 572)"/><use xlink:href="#e" id="f" width="100%" height="100%" x="0" y="0" transform="rotate(-72 400 572)"/><use xlink:href="#f" width="100%" height="100%" transform="rotate(-72 400 572)"/></g></svg>