<svg xmlns="http://www.w3.org/2000/svg" xmlns:xlink="http://www.w3.org/1999/xlink" width="300" height="400"><g transform="matrix(.4669 0 0 .49874 -18 -28)"><use xlink:href="#a" width="100%" height="100%" transform="matrix(.97502 -.21583 .22384 .97607 -18 80)"/><path id="a" fill="#b93c3c" fill-opacity="1" fill-rule="evenodd" stroke="none" stroke-linecap="butt" stroke-linejoin="miter" stroke-opacity="1" stroke-width="1" d="m293 674-6 58c-19-1-32-7-44-11 8 15 21 24 39 33l-7 42-52-9 38 18-61 12h69c-11 8-22 10-32 24 26-5 47-16 61-23 12-1 21-4 39-7-8-5-22-8-36-12l5-43c26-4 44-17 57-21-20 3-32 1-53-1l7-59z"/><path fill-rule="evenodd" d="M206 527c-28-14-35-23-44-32-17-19-35-30-55-43 17 15 33 27 48 54l-49-9c36 12 63 28 82 46z"/><path fill-rule="evenodd" stroke="#000" stroke-width=".9" d="M540 587c42-20 77-44 130-57-59 22-91 43-120 74-3 6 0 12 1 19l-29-50c7 7 13 16 18 14z"/><path fill-rule="evenodd" stroke="#000" stroke-width=".6" d="M497 524c12 18 78-39 113-61l-64 52 62-37c-36 29-79 48-93 78z"/><path fill="#004900" fill-rule="evenodd" d="M241 192c-6 1-9 0-12-2l-7-7-16-20a69 69 0 0 0-4-4c-3 8-6 16-6 24-1 8 2 15 6 20l2-1 8-2 12-2 7-1 10-5zm-39 11a22 22 0 0 0-3-3l-42-5 12 27 8 14 4-5 21-28zm-25 33-9-1a41 41 0 0 0-35 14 48 48 0 0 0 11 6c12 4 23 4 35 3-2-4-4-7-4-10l-1-5 2-4 1-3zm2 22-22 35c15 1 29 4 43 12-9-16-16-31-21-47zm21 47-6 7c-9 2-19 3-29 2l14 32a230 230 0 0 1 26-32l-5-9zm-21 41a109 109 0 0 1-16-1c-10-2-21-3-31-3l7 14c6 9 13 17 21 22l4-9c2-5 6-10 10-15a224 224 0 0 1 5-8zm-19 32-11 2c-11 3-22 10-29 21l5 2c15 5 29 2 41-3l-6-9-1-9a23 23 0 0 1 1-4zm6 22a53 53 0 0 0-2 4c-5 13-5 27-3 42a142 142 0 0 0 36-30 128 128 0 0 1-10-3l-20-12a62 62 0 0 1-1-1zm31 16c2 16 6 31 11 47a329 329 0 0 0 11-13 915 915 0 0 0 18-24 855 855 0 0 1-13-3c-10-1-19-4-27-7zm40 10 18 44 26-39-44-5zm44 5a652 652 0 0 0 15 33l5 10 23-41a578 578 0 0 1-26-1 581 581 0 0 1-17-1zm43 2 24 42a958 958 0 0 0 12-25l8-17a1063 1063 0 0 1-44 0zm44 0 25 40 20-43-45 3zm45-3 11 17 15 24 19-43a2176 2176 0 0 0-45 2zm45-2 26 41a4053 4053 0 0 1 16-34 335 335 0 0 0 3-8 421 421 0 0 1-45 1zm45-1c8 13 17 26 28 38 5-15 10-31 11-46-12 4-25 6-39 8zm39-8a156 156 0 0 0 38 30c1-10 0-20-1-29l-6-17-5 4a80 80 0 0 1-26 12zm31-16a54 54 0 0 0 46 0c-8-10-18-17-28-20a65 65 0 0 0-12-3 29 29 0 0 1 1 3l-2 12-5 8zm6-23c9-6 18-15 24-25a116 116 0 0 0 6-11c-14-1-27 1-39 4a128 128 0 0 0-7 2 95 95 0 0 1 2 2l10 16 4 12zm-16-30a127 127 0 0 0 12-44c-13 8-27 11-39 8a72 72 0 0 1-2-3 432 432 0 0 1-1 3l18 24 12 12zm-29-39c11-11 25-16 42-17l-7-8c-7-9-15-17-23-23l-4 11-8 37zm12-48 17-4c9-4 18-9 25-17l-10-5c-12-4-25-4-35-1l4 9v12l-1 6zm-3-27c9-12 13-28 13-45l-19 9c-7 5-15 9-23 10l11 11c8 5 14 9 18 15zm-29-26c-1-11 0-19 2-22a95 95 0 0 1 10-8c-6-2-14-8-26-17 0 11-2 22-4 33l18 14zm-14-47c9-5 18-10 27-13 6-3 11-5 16-9a67 67 0 0 0-44-14h1c2 5 2 12 1 19l-1 17zm-1-36a42 42 0 0 0 14-17c3-7 4-15 3-24a67 67 0 0 0 0-2c-17 6-28 17-36 30 6 1 10 2 13 5a18 18 0 0 1 6 8zm-19-13a67 67 0 0 0 0-2c-3-14-11-28-20-41a143 143 0 0 0-4 9c-6 12-9 24-12 36l15-3a76 76 0 0 1 21 1zm-36 2c-4-6-9-12-15-17a190 190 0 0 0-19-16l-3 36a55 55 0 0 1-2 10l7-1 23-10a142 142 0 0 1 9-2zm-39 13c-14-8-21-14-23-17l-1-4-23 13 21 17 26-9zm-47-8c-2-15-2-31-2-48l-1 1c-11 5-21 13-26 23a37 37 0 0 0-3 10h2c3 0 5 2 8 3 8 3 15 6 22 11zm-32-14c-1-5-4-10-8-14-6-7-16-12-26-16 0 12 3 24 7 34a135 135 0 0 0 5 11 77 77 0 0 1 3-3c6-6 11-10 15-11a16 16 0 0 1 4-1zm-22 15c-15-3-31-5-47-5l6 12 17 29 9-14c5-8 9-15 15-22zm-24 36-19-1c-10-1-19-3-26-9 4 6 4 13 4 20-1 8-1 17 1 25l8-5c4-1 8-4 13-7l13-14a176 176 0 0 0 6-9z"/><path fill-rule="evenodd" stroke="#000" stroke-width="2" d="M86 705c27-300 458-251 458-253l-49 63s71 176 147 186c45 6-117-14-276-14-131-1-265 19-280 18z"/><path fill="#fff" d="M203 575a25 17 0 0 1-9 23 25 17 0 0 1-35-6 25 17 0 0 1 9-23 25 17 0 0 1 35 6m44-37a25 17 0 0 1-9 22 25 17 0 0 1-35-6 25 17 0 0 1 9-22 25 17 0 0 1 35 5m28 41a25 17 0 0 1-9 23 25 17 0 0 1-34-6 25 17 0 0 1 9-23 25 17 0 0 1 34 6m-37 38a25 17 0 0 1-9 23 25 17 0 0 1-34-6 25 17 0 0 1 9-23 25 17 0 0 1 34 6m-69-1a25 17 0 0 1-9 23 25 17 0 0 1-35-6 25 17 0 0 1 9-23 25 17 0 0 1 35 6m43 44a25 17 0 0 1-10 23 25 17 0 0 1-34-6 25 17 0 0 1 9-23 25 17 0 0 1 34 6m-59-2a25 17 0 0 1-10 23 25 17 0 0 1-34-6 25 17 0 0 1 9-23 25 17 0 0 1 34 6m301-67a25 17 0 0 1-9 22 25 17 0 0 1-35-6 25 17 0 0 1 9-22 25 17 0 0 1 34 5m25 36a25 17 0 0 1-9 23 25 17 0 0 1-34-6 25 17 0 0 1 8-23 25 17 0 0 1 35 6m31 39a25 17 0 0 1-10 23 25 17 0 0 1-34-6 25 17 0 0 1 9-23 25 17 0 0 1 34 6m10-76a25 17 0 0 1-9 23 25 17 0 0 1-35-6 25 17 0 0 1 9-23 25 17 0 0 1 35 6m25 39a25 17 0 0 1-9 23 25 17 0 0 1-34-6 25 17 0 0 1 9-23 25 17 0 0 1 34 6m29 35a25 17 0 0 1-9 23 25 17 0 0 1-35-6 25 17 0 0 1 9-23 25 17 0 0 1 35 6m-73-115a25 17 0 0 1-9 23 25 17 0 0 1-35-6 25 17 0 0 1 9-23 25 17 0 0 1 35 6m-61-2a25 17 0 0 1-9 23 25 17 0 0 1-34-6 25 17 0 0 1 9-23 25 17 0 0 1 34 6m37-40a25 17 0 0 1-9 23 25 17 0 0 1-34-6 25 17 0 0 1 9-23 25 17 0 0 1 34 6m-33-40a25 17 0 0 1-9 23 25 17 0 0 1-34-6 25 17 0 0 1 9-23 25 17 0 0 1 34 6m64 2a25 17 0 0 1-9 23 25 17 0 0 1-35-6 25 17 0 0 1 9-23 25 17 0 0 1 35 6"/><path fill="#004900" d="M273 475c-23-1-53-5-66-8-24-5-40-13-50-25-8-8-11-16-11-28 0-21 12-47 33-70l7-11 7-14 5-9-13-14a191 191 0 0 1-31-43c-3-5-2-9-2-14 0-9 7-20 24-33 8-6 9-9 32-11l20-1c7-3 17-10 23-17l13-25c12-24 25-43 35-54 13-14 23-17 34-12 12 5 23 13 37 27l7 7 6-2 16-6 20-7c34-13 70-12 85 3 4 4 7 10 7 15 1 7-1 36-2 47-4 18-4 15 3 21a290 290 0 0 1 29 26c6 5 13 13 15 19 5 10 5 20 1 33l-4 18-5 20-3 10 5 6 9 12 10 10c19 16 30 38 27 54-1 8-4 14-10 21-13 16-38 30-71 41-7 2-8 2-28 3a1368 1368 0 0 0-141 10c-18 2-59 2-73 1z"/><path fill="#fff" fill-rule="evenodd" stroke="#fff" stroke-linejoin="round" stroke-width="4.9" d="M252 375c-19 3-54-16-57-15-1 0 44 21 40 22-17 5-37 5-55 7l67 4-68 16c24 0 52-7 70-2-2-10 0-23 3-32z"/><path fill="#b93c3c" fill-rule="evenodd" d="m310 441-107-39 49 38-58-10 85 53z"/><path fill="#004900" stroke="#fff" stroke-linecap="round" stroke-linejoin="round" stroke-width="18" d="M344 180a22 22 0 0 1 8 23 22 22 0 0 1-19 16 22 22 0 0 1-22-11 22 22 0 0 1 3-25m117 3a22 22 0 0 1 2 24 22 22 0 0 1-22 12 22 22 0 0 1-18-17 22 22 0 0 1 8-23m-14 67a22 22 0 0 1 4 25 22 22 0 0 1-20 13 22 22 0 0 1-21-14 22 22 0 0 1 6-24m-61-5a22 22 0 0 1 14 21 22 22 0 0 1-14 20 22 22 0 0 1-25-6 22 22 0 0 1-3-24m208-1a22 22 0 0 1-3 24 22 22 0 0 1-23 7 22 22 0 0 1-16-19 22 22 0 0 1 13-22m-108 65a22 22 0 0 1 13 20 22 22 0 0 1-14 21 22 22 0 0 1-24-6 22 22 0 0 1-4-24m120-2a22 22 0 0 1-3 24 22 22 0 0 1-24 7 22 22 0 0 1-15-19 22 22 0 0 1 12-22m-13 74a22 22 0 0 1 5 24 22 22 0 0 1-21 14 22 22 0 0 1-20-14 22 22 0 0 1 6-25m153-56a22 22 0 0 1-10 22 22 22 0 0 1-25-1 22 22 0 0 1-8-24 22 22 0 0 1 19-16m-18 88a22 22 0 0 1-11 22 22 22 0 0 1-24-2 22 22 0 0 1-8-23 22 22 0 0 1 19-16m-197-67a22 22 0 0 1 21 14 22 22 0 0 1-5 24 22 22 0 0 1-24 5 22 22 0 0 1-14-21m67 46a22 22 0 0 1 21 13 22 22 0 0 1-5 24 22 22 0 0 1-24 5 22 22 0 0 1-14-21"/><path fill="#fff" d="M299 504a25 17 0 0 1-9 23 25 17 0 0 1-34-6 25 17 0 0 1 8-23 25 17 0 0 1 35 6m34 39a25 17 0 0 1-9 23 25 17 0 0 1-34-6 25 17 0 0 1 8-22 25 17 0 0 1 35 5"/><path fill="#fff" fill-rule="evenodd" stroke="#000" stroke-linecap="round" stroke-linejoin="round" stroke-width="12.4" d="M517 688c-53 3-103 3-154-9-30-3-89 18-151 18-41 3-41-13-27-37 22-34 114-82 185-122-26-1-84-18-91-46-5-19 1-42 22-48 22-6 27-8 60 2 11 1 23 13 33 20 14 16 31 28 35 57-1 12-2 25-9 38-17 16-54 41-75 50 20-7 58-28 76-37 29 44 62 79 96 114z"/><path fill-rule="evenodd" d="M332 464c-2 4-3 6-2 12 3 4 6 8 14 3 5-4 4-7 3-11-2-7-2-9-6-10-4 0-6 4-9 6z"/><path fill="#004900" fill-rule="evenodd" d="M170 433c-49-3-76-16-124-23 36 2 53 5 90 2-39-13-37-16-74-31 47 15 57 13 115 20z"/><path fill="#fff" fill-rule="evenodd" stroke="#fff" stroke-linecap="round" stroke-linejoin="round" stroke-width="4" d="M355 161c-8-7-9-15-1-25l-18 15 12-25-17 20 4-26-10 22-6-22-3 25-9-24c5 23-1 30-7 44 19-9 37-14 55-4z"/><path fill="#fff" fill-rule="evenodd" stroke="#fff" stroke-linecap="round" stroke-linejoin="round" stroke-width="4.4" d="M476 174c-2-7-7-13-15-17l13-22-21 16 6-26-14 24-3-26-7 25-11-21c-1 9 1 20-16 22 20 3 57 16 68 25z"/><path fill="#fff" fill-rule="evenodd" stroke="#fff" stroke-linejoin="round" stroke-width="4.4" d="M469 229c7-14 6-22 8-33l5 30 17-19-6 24 25-13-15 17 30 2-23 5 22 13c-12-5-24-6-36 8 2-29-13-31-27-34z"/><path fill="#fff" fill-rule="evenodd" stroke="#fff" stroke-linejoin="round" stroke-width="4.9" d="m540 269-56 19c12 6 19 9 22 20l34-10-35 2 30-14-33 4zm-13 88c12 5 17 9 39 9l-51 7zm-37 43c20 1 42-6 62-9-18 10-37 11-56 16l48 15c-19-1-37-6-52 1 11 6 22 12 42 16l-73-3c15-2 32-27 29-36z"/><path fill="#fff" fill-rule="evenodd" stroke="#fff" stroke-linejoin="round" stroke-width="4.4" d="M248 267c1-18 1-20 11-28-20-4-23-13-35-21l20 25-46-14 37 19h-49l41 7c-2 9-17 9-32 16 16-4 40-10 53-4z"/><path fill="#fff" fill-rule="evenodd" stroke="#fff" stroke-linejoin="round" stroke-width="4.3" d="M270 178c3 16 5 30 16 43-7-4-8 1-21 3 6-16 1-31 5-46z"/><path fill="#fff" fill-rule="evenodd" stroke="#fff" stroke-linejoin="round" stroke-width="4.4" d="M235 294c-29-12-33-8-33-8l31 13z"/><path fill-rule="evenodd" stroke="#000" stroke-width=".5" d="M99 628c-20 5-36 18-47 27 12-4 27-9 40-10 6 0 6 0 5 4l16-39c-3 3-8 16-14 18z"/></g></svg>