<svg xmlns="http://www.w3.org/2000/svg" width="300" height="400"><g transform="translate(286 -421) scale(1.02274)"><circle cx="-206" cy="485.5" r="59.8"/><circle cx="-206" cy="485.5" r="45.1" fill="#fff"/><circle cx="-206" cy="485.5" r="38.8" fill="#000037"/><path fill="none" stroke="#fff" stroke-dasharray="13 13" stroke-linecap="round" stroke-linejoin="round" stroke-width="6.6" d="M-185 485a21 21 0 0 0-21-21 21 21 0 0 0-21 21 21 21 0 0 0 20 22 21 21 0 0 0 22-20"/><circle cx="-206" cy="485.5" r="7.9" fill="#fff"/><circle cx="-206" cy="485.5" r="3.6" fill="#000037"/></g><g transform="translate(361 -297) scale(1.02274)"><circle cx="-206" cy="485.5" r="59.8"/><circle cx="-206" cy="485.5" r="45.1" fill="#fff"/><circle cx="-206" cy="485.5" r="38.8" fill="#b93c3c"/><path fill="none" stroke="#fff" stroke-dasharray="13 13" stroke-linecap="round" stroke-linejoin="round" stroke-width="6.6" d="M-185 485a21 21 0 0 0-21-21 21 21 0 0 0-21 21 21 21 0 0 0 20 22 21 21 0 0 0 22-20"/><circle cx="-206" cy="485.5" r="7.9" fill="#fff"/><circle cx="-206" cy="485.5" r="3.6" fill="#b93c3c"/></g><g transform="translate(435 -172) scale(1.02274)"><circle cx="-206" cy="485.5" r="59.8"/><circle cx="-206" cy="485.5" r="45.1" fill="#fff"/><circle cx="-206" cy="485.5" r="38.8" fill="#000037"/><path fill="none" stroke="#fff" stroke-dasharray="13 13" stroke-linecap="round" stroke-linejoin="round" stroke-width="6.6" d="M-185 485a21 21 0 0 0-21-21 21 21 0 0 0-21 21 21 21 0 0 0 20 22 21 21 0 0 0 22-20"/><circle cx="-206" cy="485.5" r="7.9" fill="#fff"/><circle cx="-206" cy="485.5" r="3.6" fill="#000037"/></g></svg>