<svg xmlns="http://www.w3.org/2000/svg" width="300" height="400"><g transform="translate(6 -626) scale(.95916)"><ellipse cx="135.1" cy="680.4" fill="#004900" rx="24.7" ry="19.1"/><ellipse cx="164" cy="680.4" fill="#004900" rx="24.7" ry="19.1"/><ellipse cx="133.8" cy="829.8" fill="#004900" rx="24.7" ry="19.1"/><path fill="none" stroke="#004900" stroke-linecap="round" stroke-width="55" d="M150 819V684"/><ellipse cx="165.6" cy="829.8" fill="#004900" rx="24.7" ry="19.1"/><ellipse cx="161" cy="748.8" fill="#004900" rx="32.8" ry="25.4"/><ellipse cx="138.3" cy="748.8" fill="#004900" rx="32.8" ry="25.4"/><path fill="none" stroke="#fff" stroke-linecap="round" stroke-width="12.5" d="M150 686v38m0 54v46"/><ellipse cx="149.6" cy="683.5" fill="#fff" rx="9" ry="8.7"/><path fill="none" stroke="#fff" stroke-linecap="round" stroke-linejoin="round" stroke-width="10.4" d="M140 762c4-7 16-6 19 0m-19-18c4-7 16-7 19 0"/></g><g transform="translate(-93 -417) scale(.95916)"><ellipse cx="135.1" cy="680.4" fill="#004900" rx="24.7" ry="19.1"/><ellipse cx="164" cy="680.4" fill="#004900" rx="24.7" ry="19.1"/><ellipse cx="133.8" cy="829.8" fill="#004900" rx="24.7" ry="19.1"/><path fill="none" stroke="#004900" stroke-linecap="round" stroke-width="55" d="M150 819V684"/><ellipse cx="165.6" cy="829.8" fill="#004900" rx="24.7" ry="19.1"/><ellipse cx="161" cy="748.8" fill="#004900" rx="32.8" ry="25.4"/><ellipse cx="138.3" cy="748.8" fill="#004900" rx="32.8" ry="25.4"/><path fill="none" stroke="#fff" stroke-linecap="round" stroke-width="12.5" d="M150 686v38m0 54v46"/><ellipse cx="149.6" cy="683.5" fill="#fff" rx="9" ry="8.7"/><path fill="none" stroke="#fff" stroke-linecap="round" stroke-linejoin="round" stroke-width="10.4" d="M140 762c4-7 16-6 19 0m-19-18c4-7 16-7 19 0"/></g><g transform="translate(110 -417) scale(.95916)"><ellipse cx="135.1" cy="680.4" fill="#004900" rx="24.7" ry="19.1"/><ellipse cx="164" cy="680.4" fill="#004900" rx="24.7" ry="19.1"/><ellipse cx="133.8" cy="829.8" fill="#004900" rx="24.7" ry="19.1"/><path fill="none" stroke="#004900" stroke-linecap="round" stroke-width="55" d="M150 819V684"/><ellipse cx="165.6" cy="829.8" fill="#004900" rx="24.7" ry="19.1"/><ellipse cx="161" cy="748.8" fill="#004900" rx="32.8" ry="25.4"/><ellipse cx="138.3" cy="748.8" fill="#004900" rx="32.8" ry="25.4"/><path fill="none" stroke="#fff" stroke-linecap="round" stroke-width="12.5" d="M150 686v38m0 54v46"/><ellipse cx="149.6" cy="683.5" fill="#fff" rx="9" ry="8.7"/><path fill="none" stroke="#fff" stroke-linecap="round" stroke-linejoin="round" stroke-width="10.4" d="M140 762c4-7 16-6 19 0m-19-18c4-7 16-7 19 0"/></g></svg>