<svg xmlns="http://www.w3.org/2000/svg" width="300" height="400"><g transform="translate(0 -663)"><circle cx="100.5" cy="736.8" r="61.1"/><circle cx="100.6" cy="988.5" r="61.1"/><circle cx="199.5" cy="988.5" r="61.1"/><circle cx="199.5" cy="901.2" r="61.1"/><circle cx="100.6" cy="901.2" r="61.1"/><circle cx="100.6" cy="901.2" r="46.1" fill="#fff"/><circle cx="100.6" cy="901.2" r="39.7" fill="#b93c3c"/><path fill="none" stroke="#fff" stroke-dasharray="14 14" stroke-linecap="round" stroke-linejoin="round" stroke-width="6.8" d="M122 901a22 22 0 0 0-21-21 22 22 0 0 0-22 21 22 22 0 0 0 21 22 22 22 0 0 0 22-20"/><circle cx="100.6" cy="901.2" r="8" fill="#fff"/><circle cx="100.6" cy="901.2" r="3.7" fill="#b93c3c"/><circle cx="199.5" cy="901.2" r="46.1" fill="#fff"/><circle cx="199.5" cy="901.2" r="39.7" fill="#b93c3c"/><path fill="none" stroke="#fff" stroke-dasharray="14 14" stroke-linecap="round" stroke-linejoin="round" stroke-width="6.8" d="M221 901a22 22 0 0 0-21-21 22 22 0 0 0-22 21 22 22 0 0 0 20 22 22 22 0 0 0 23-20"/><circle cx="199.5" cy="901.2" r="8" fill="#fff"/><circle cx="199.5" cy="901.2" r="3.7" fill="#b93c3c"/><circle cx="100.6" cy="988.5" r="46.1" fill="#fff"/><circle cx="100.6" cy="988.5" r="39.7" fill="#b93c3c"/><path fill="none" stroke="#fff" stroke-dasharray="14 14" stroke-linecap="round" stroke-linejoin="round" stroke-width="6.8" d="M122 988a22 22 0 0 0-21-21 22 22 0 0 0-22 21 22 22 0 0 0 21 22 22 22 0 0 0 22-20"/><circle cx="100.6" cy="988.5" r="8" fill="#fff"/><circle cx="100.6" cy="988.5" r="3.7" fill="#b93c3c"/><circle cx="199.5" cy="988.5" r="46.1" fill="#fff"/><circle cx="199.5" cy="988.5" r="39.7" fill="#b93c3c"/><path fill="none" stroke="#fff" stroke-dasharray="14 14" stroke-linecap="round" stroke-linejoin="round" stroke-width="6.8" d="M221 988a22 22 0 0 0-21-21 22 22 0 0 0-22 21 22 22 0 0 0 20 22 22 22 0 0 0 23-20"/><circle cx="199.5" cy="988.5" r="8" fill="#fff"/><circle cx="199.5" cy="988.5" r="3.7" fill="#b93c3c"/><circle cx="199.6" cy="736.8" r="61.1"/><circle cx="199.6" cy="736.8" r="46.1" fill="#fff"/><circle cx="199.6" cy="736.8" r="39.7" fill="#000037"/><path fill="none" stroke="#fff" stroke-dasharray="14 14" stroke-linecap="round" stroke-linejoin="round" stroke-width="6.8" d="M221 737a22 22 0 0 0-21-22 22 22 0 0 0-22 21 22 22 0 0 0 21 22 22 22 0 0 0 22-20"/><circle cx="199.6" cy="736.8" r="8" fill="#fff"/><circle cx="199.6" cy="736.8" r="3.7" fill="#000037"/><circle cx="100.5" cy="736.8" r="46.1" fill="#fff"/><circle cx="100.5" cy="736.8" r="39.7" fill="#000037"/><path fill="none" stroke="#fff" stroke-dasharray="14 14" stroke-linecap="round" stroke-linejoin="round" stroke-width="6.8" d="M122 737a22 22 0 0 0-21-22 22 22 0 0 0-22 21 22 22 0 0 0 20 22 22 22 0 0 0 23-20"/><circle cx="100.5" cy="736.8" r="8" fill="#fff"/><circle cx="100.5" cy="736.8" r="3.7" fill="#000037"/></g></svg>