<svg xmlns="http://www.w3.org/2000/svg" width="300" height="400"><g transform="translate(0 -3662)"><circle cx="100.6" cy="3997.9" r="61.1"/><circle cx="199.5" cy="3997.9" r="61.1"/><circle cx="199.5" cy="3910.6" r="61.1"/><circle cx="232.2" cy="3828.1" r="61.1"/><g transform="translate(361 3281) scale(1.02274)"><circle cx="-206" cy="485.5" r="59.8"/><circle cx="-206" cy="485.5" r="45.1" fill="#fff"/><circle cx="-206" cy="485.5" r="38.8" fill="#000037"/><path fill="none" stroke="#fff" stroke-dasharray="13 13" stroke-linecap="round" stroke-linejoin="round" stroke-width="6.6" d="M-185 485a21 21 0 0 0-21-21 21 21 0 0 0-21 21 21 21 0 0 0 20 22 21 21 0 0 0 22-20"/><circle cx="-206" cy="485.5" r="7.9" fill="#fff"/><circle cx="-206" cy="485.5" r="3.6" fill="#000037"/></g><circle cx="150" cy="3777.1" r="61.1"/><circle cx="100.6" cy="3910.6" r="61.1"/><circle cx="100.6" cy="3910.6" r="46.1" fill="#fff"/><circle cx="100.6" cy="3910.6" r="39.7" fill="#b93c3c"/><path fill="none" stroke="#fff" stroke-dasharray="14 14" stroke-linecap="round" stroke-linejoin="round" stroke-width="6.8" d="M122 3910a22 22 0 0 0-21-21 22 22 0 0 0-22 21 22 22 0 0 0 21 22 22 22 0 0 0 22-20"/><circle cx="100.6" cy="3910.6" r="8" fill="#fff"/><circle cx="100.6" cy="3910.6" r="3.7" fill="#b93c3c"/><circle cx="67.8" cy="3726.1" r="61.1"/><circle cx="67.8" cy="3726.1" r="46.1" fill="#fff"/><circle cx="67.8" cy="3726.1" r="39.7" fill="#000037"/><path fill="none" stroke="#fff" stroke-dasharray="14 14" stroke-linecap="round" stroke-linejoin="round" stroke-width="6.8" d="M89 3726a22 22 0 0 0-21-21 22 22 0 0 0-22 20 22 22 0 0 0 21 23 22 22 0 0 0 22-20"/><circle cx="67.8" cy="3726.1" r="8" fill="#fff"/><circle cx="67.8" cy="3726.1" r="3.7" fill="#000037"/><circle cx="150" cy="3777.1" r="46.1" fill="#fff"/><circle cx="150" cy="3777.1" r="39.7" fill="#000037"/><path fill="none" stroke="#fff" stroke-dasharray="14 14" stroke-linecap="round" stroke-linejoin="round" stroke-width="6.8" d="M172 3777a22 22 0 0 0-22-21 22 22 0 0 0-22 20 22 22 0 0 0 21 23 22 22 0 0 0 23-20"/><circle cx="150" cy="3777.1" r="8" fill="#fff"/><circle cx="150" cy="3777.1" r="3.7" fill="#000037"/><circle cx="232.2" cy="3828.1" r="46.1" fill="#fff"/><circle cx="232.2" cy="3828.1" r="39.7" fill="#000037"/><path fill="none" stroke="#fff" stroke-dasharray="14 14" stroke-linecap="round" stroke-linejoin="round" stroke-width="6.8" d="M254 3828a22 22 0 0 0-22-21 22 22 0 0 0-21 20 22 22 0 0 0 20 23 22 22 0 0 0 23-20"/><circle cx="232.2" cy="3828.1" r="8" fill="#fff"/><circle cx="232.2" cy="3828.1" r="3.7" fill="#000037"/><circle cx="199.5" cy="3910.6" r="46.1" fill="#fff"/><circle cx="199.5" cy="3910.6" r="39.7" fill="#b93c3c"/><path fill="none" stroke="#fff" stroke-dasharray="14 14" stroke-linecap="round" stroke-linejoin="round" stroke-width="6.8" d="M221 3910a22 22 0 0 0-21-21 22 22 0 0 0-22 21 22 22 0 0 0 20 22 22 22 0 0 0 23-20"/><circle cx="199.5" cy="3910.6" r="8" fill="#fff"/><circle cx="199.5" cy="3910.6" r="3.7" fill="#b93c3c"/><circle cx="100.6" cy="3997.9" r="46.1" fill="#fff"/><circle cx="100.6" cy="3997.9" r="39.7" fill="#b93c3c"/><path fill="none" stroke="#fff" stroke-dasharray="14 14" stroke-linecap="round" stroke-linejoin="round" stroke-width="6.8" d="M122 3998a22 22 0 0 0-21-22 22 22 0 0 0-22 21 22 22 0 0 0 21 22 22 22 0 0 0 22-20"/><circle cx="100.6" cy="3997.9" r="8" fill="#fff"/><circle cx="100.6" cy="3997.9" r="3.7" fill="#b93c3c"/><circle cx="199.5" cy="3997.9" r="46.1" fill="#fff"/><circle cx="199.5" cy="3997.9" r="39.7" fill="#b93c3c"/><path fill="none" stroke="#fff" stroke-dasharray="14 14" stroke-linecap="round" stroke-linejoin="round" stroke-width="6.8" d="M221 3998a22 22 0 0 0-21-22 22 22 0 0 0-22 21 22 22 0 0 0 20 22 22 22 0 0 0 23-20"/><circle cx="199.5" cy="3997.9" r="8" fill="#fff"/><circle cx="199.5" cy="3997.9" r="3.7" fill="#b93c3c"/></g></svg>