<svg xmlns="http://www.w3.org/2000/svg" width="300" height="400"><g transform="translate(0 -652)"><circle cx="97.8" cy="718.1" r="61.1"/><circle cx="97.8" cy="808.1" r="61.1"/><circle cx="97.8" cy="896.6" r="61.1"/><circle cx="97.8" cy="986.6" r="61.1"/><circle cx="202.2" cy="718.1" r="61.1"/><circle cx="202.2" cy="808.1" r="61.1"/><circle cx="202.2" cy="896.6" r="61.1"/><circle cx="202.2" cy="986.6" r="61.1"/><circle cx="97.8" cy="718.1" r="46.1" fill="#fff"/><circle cx="97.8" cy="718.1" r="39.7" fill="#000037"/><path fill="none" stroke="#fff" stroke-dasharray="14 14" stroke-linecap="round" stroke-linejoin="round" stroke-width="6.8" d="M119 718a22 22 0 0 0-21-21 22 22 0 0 0-22 20 22 22 0 0 0 21 23 22 22 0 0 0 22-20"/><circle cx="97.8" cy="718.1" r="8" fill="#fff"/><circle cx="97.8" cy="718.1" r="3.7" fill="#000037"/><circle cx="97.8" cy="808.1" r="46.1" fill="#fff"/><circle cx="97.8" cy="808.1" r="39.7" fill="#000037"/><path fill="none" stroke="#fff" stroke-dasharray="14 14" stroke-linecap="round" stroke-linejoin="round" stroke-width="6.8" d="M119 808a22 22 0 0 0-21-21 22 22 0 0 0-22 20 22 22 0 0 0 21 23 22 22 0 0 0 22-20"/><circle cx="97.8" cy="808.1" r="8" fill="#fff"/><circle cx="97.8" cy="808.1" r="3.7" fill="#000037"/><circle cx="97.8" cy="896.6" r="46.1" fill="#fff"/><circle cx="97.8" cy="896.6" r="39.7" fill="#000037"/><path fill="none" stroke="#fff" stroke-dasharray="14 14" stroke-linecap="round" stroke-linejoin="round" stroke-width="6.8" d="M119 896a22 22 0 0 0-21-21 22 22 0 0 0-22 21 22 22 0 0 0 21 22 22 22 0 0 0 22-20"/><circle cx="97.8" cy="896.6" r="8" fill="#fff"/><circle cx="97.8" cy="896.6" r="3.7" fill="#000037"/><circle cx="97.8" cy="986.6" r="46.1" fill="#fff"/><circle cx="97.8" cy="986.6" r="39.7" fill="#000037"/><path fill="none" stroke="#fff" stroke-dasharray="14 14" stroke-linecap="round" stroke-linejoin="round" stroke-width="6.8" d="M119 986a22 22 0 0 0-21-21 22 22 0 0 0-22 21 22 22 0 0 0 21 22 22 22 0 0 0 22-20"/><circle cx="97.8" cy="986.6" r="8" fill="#fff"/><circle cx="97.8" cy="986.6" r="3.7" fill="#000037"/><circle cx="202.2" cy="718.1" r="46.1" fill="#fff"/><circle cx="202.2" cy="718.1" r="39.7" fill="#000037"/><path fill="none" stroke="#fff" stroke-dasharray="14 14" stroke-linecap="round" stroke-linejoin="round" stroke-width="6.8" d="M224 718a22 22 0 0 0-22-21 22 22 0 0 0-21 20 22 22 0 0 0 20 23 22 22 0 0 0 23-20"/><circle cx="202.2" cy="718.1" r="8" fill="#fff"/><circle cx="202.2" cy="718.1" r="3.7" fill="#000037"/><circle cx="202.2" cy="808.1" r="46.1" fill="#fff"/><circle cx="202.2" cy="808.1" r="39.7" fill="#000037"/><path fill="none" stroke="#fff" stroke-dasharray="14 14" stroke-linecap="round" stroke-linejoin="round" stroke-width="6.8" d="M224 808a22 22 0 0 0-22-21 22 22 0 0 0-21 20 22 22 0 0 0 20 23 22 22 0 0 0 23-20"/><circle cx="202.2" cy="808.1" r="8" fill="#fff"/><circle cx="202.2" cy="808.1" r="3.7" fill="#000037"/><circle cx="202.2" cy="896.6" r="46.1" fill="#fff"/><circle cx="202.2" cy="896.6" r="39.7" fill="#000037"/><path fill="none" stroke="#fff" stroke-dasharray="14 14" stroke-linecap="round" stroke-linejoin="round" stroke-width="6.8" d="M224 896a22 22 0 0 0-22-21 22 22 0 0 0-21 21 22 22 0 0 0 20 22 22 22 0 0 0 23-20"/><circle cx="202.2" cy="896.6" r="8" fill="#fff"/><circle cx="202.2" cy="896.6" r="3.7" fill="#000037"/><circle cx="202.2" cy="986.6" r="46.1" fill="#fff"/><circle cx="202.2" cy="986.6" r="39.7" fill="#000037"/><path fill="none" stroke="#fff" stroke-dasharray="14 14" stroke-linecap="round" stroke-linejoin="round" stroke-width="6.8" d="M224 986a22 22 0 0 0-22-21 22 22 0 0 0-21 21 22 22 0 0 0 20 22 22 22 0 0 0 23-20"/><circle cx="202.2" cy="986.6" r="8" fill="#fff"/><circle cx="202.2" cy="986.6" r="3.7" fill="#000037"/></g></svg>