<svg xmlns="http://www.w3.org/2000/svg" width="300" height="400"><g transform="translate(0 -652)"><circle cx="237.4" cy="715" r="61.1"/><circle cx="62.8" cy="715" r="61.1"/><circle cx="150.1" cy="715" r="61.1"/><circle cx="150.1" cy="715" r="46.1" fill="#fff"/><circle cx="150.1" cy="715" r="39.7" fill="#000037"/><path fill="none" stroke="#fff" stroke-dasharray="14 14" stroke-linecap="round" stroke-linejoin="round" stroke-width="6.8" d="M172 715a22 22 0 0 0-22-22 22 22 0 0 0-21 21 22 22 0 0 0 20 23 22 22 0 0 0 23-21"/><circle cx="150.1" cy="715" r="8" fill="#fff"/><circle cx="150.1" cy="715" r="3.7" fill="#000037"/><circle cx="62.8" cy="715" r="46.1" fill="#fff"/><circle cx="62.8" cy="715" r="39.7" fill="#000037"/><path fill="none" stroke="#fff" stroke-dasharray="14 14" stroke-linecap="round" stroke-linejoin="round" stroke-width="6.8" d="M84 715a22 22 0 0 0-21-22 22 22 0 0 0-22 21 22 22 0 0 0 21 23 22 22 0 0 0 22-21"/><circle cx="62.8" cy="715" r="8" fill="#fff"/><circle cx="62.8" cy="715" r="3.7" fill="#000037"/><circle cx="237.4" cy="715" r="46.1" fill="#fff"/><circle cx="237.4" cy="715" r="39.7" fill="#000037"/><path fill="none" stroke="#fff" stroke-dasharray="14 14" stroke-linecap="round" stroke-linejoin="round" stroke-width="6.8" d="M259 715a22 22 0 0 0-21-22 22 22 0 0 0-22 21 22 22 0 0 0 20 23 22 22 0 0 0 23-21"/><circle cx="237.4" cy="715" r="8" fill="#fff"/><circle cx="237.4" cy="715" r="3.7" fill="#000037"/></g><g transform="translate(0 -378)"><circle cx="237.4" cy="715" r="61.1"/><circle cx="62.8" cy="715" r="61.1"/><circle cx="150.1" cy="715" r="61.1"/><circle cx="150.1" cy="715" r="46.1" fill="#fff"/><circle cx="150.1" cy="715" r="39.7" fill="#000037"/><path fill="none" stroke="#fff" stroke-dasharray="14 14" stroke-linecap="round" stroke-linejoin="round" stroke-width="6.8" d="M172 715a22 22 0 0 0-22-22 22 22 0 0 0-21 21 22 22 0 0 0 20 23 22 22 0 0 0 23-21"/><circle cx="150.1" cy="715" r="8" fill="#fff"/><circle cx="150.1" cy="715" r="3.7" fill="#000037"/><circle cx="62.8" cy="715" r="46.1" fill="#fff"/><circle cx="62.8" cy="715" r="39.7" fill="#000037"/><path fill="none" stroke="#fff" stroke-dasharray="14 14" stroke-linecap="round" stroke-linejoin="round" stroke-width="6.8" d="M84 715a22 22 0 0 0-21-22 22 22 0 0 0-22 21 22 22 0 0 0 21 23 22 22 0 0 0 22-21"/><circle cx="62.8" cy="715" r="8" fill="#fff"/><circle cx="62.8" cy="715" r="3.7" fill="#000037"/><circle cx="237.4" cy="715" r="46.1" fill="#fff"/><circle cx="237.4" cy="715" r="39.7" fill="#000037"/><path fill="none" stroke="#fff" stroke-dasharray="14 14" stroke-linecap="round" stroke-linejoin="round" stroke-width="6.8" d="M259 715a22 22 0 0 0-21-22 22 22 0 0 0-22 21 22 22 0 0 0 20 23 22 22 0 0 0 23-21"/><circle cx="237.4" cy="715" r="8" fill="#fff"/><circle cx="237.4" cy="715" r="3.7" fill="#000037"/></g><g transform="translate(0 -652)"><circle cx="63" cy="852.4" r="61.1"/><circle cx="237.7" cy="852.4" r="61.1"/><circle cx="150" cy="852.4" r="61.1"/><circle cx="150" cy="852.4" r="46.1" fill="#fff"/><circle cx="150" cy="852.4" r="39.7" fill="#b93c3c"/><path fill="none" stroke="#fff" stroke-dasharray="14 14" stroke-linecap="round" stroke-linejoin="round" stroke-width="6.8" d="M172 852a22 22 0 0 0-22-21 22 22 0 0 0-22 21 22 22 0 0 0 21 22 22 22 0 0 0 23-20"/><circle cx="150" cy="852.4" r="8" fill="#fff"/><circle cx="150" cy="852.4" r="3.7" fill="#b93c3c"/><circle cx="63" cy="852.4" r="46.1" fill="#fff"/><circle cx="63" cy="852.4" r="39.7" fill="#b93c3c"/><path fill="none" stroke="#fff" stroke-dasharray="14 14" stroke-linecap="round" stroke-linejoin="round" stroke-width="6.8" d="M85 852a22 22 0 0 0-22-21 22 22 0 0 0-22 21 22 22 0 0 0 21 22 22 22 0 0 0 23-20"/><circle cx="63" cy="852.4" r="8" fill="#fff"/><circle cx="63" cy="852.4" r="3.7" fill="#b93c3c"/><circle cx="237.7" cy="852.4" r="46.1" fill="#fff"/><circle cx="237.7" cy="852.4" r="39.7" fill="#b93c3c"/><path fill="none" stroke="#fff" stroke-dasharray="14 14" stroke-linecap="round" stroke-linejoin="round" stroke-width="6.8" d="M259 852a22 22 0 0 0-21-21 22 22 0 0 0-22 21 22 22 0 0 0 21 22 22 22 0 0 0 22-20"/><circle cx="237.7" cy="852.4" r="8" fill="#fff"/><circle cx="237.7" cy="852.4" r="3.7" fill="#b93c3c"/></g></svg>