<svg xmlns="http://www.w3.org/2000/svg" width="300" height="400"><g transform="matrix(1.5015 0 0 1.14938 -451 -595)"><circle cx="391.4" cy="540.3" r="13.4" fill="#b93c3c"/><circle cx="408.7" cy="540.3" r="13.4" fill="#b93c3c"/><circle cx="390.7" cy="612.2" r="13.4" fill="#b93c3c"/><path fill="none" stroke="#b93c3c" stroke-linecap="round" stroke-width="29.1" d="M400 610v-72"/><circle cx="409.7" cy="612.2" r="13.4" fill="#b93c3c"/><circle cx="406.9" cy="574.4" r="16.3" fill="#b93c3c"/><circle cx="393.4" cy="574.4" r="16.3" fill="#b93c3c"/><path fill="none" stroke="#fff" stroke-linecap="round" stroke-width="8.4" d="M400 537v23m0 29v21"/><path fill="none" stroke="#fff" stroke-linecap="round" stroke-linejoin="round" stroke-width="8.4" d="M399 574h1"/></g><g transform="matrix(1.5015 0 0 1.14938 -555 -328)"><circle cx="391.4" cy="540.3" r="13.4" fill="#004900"/><circle cx="408.7" cy="540.3" r="13.4" fill="#004900"/><circle cx="390.7" cy="612.2" r="13.4" fill="#004900"/><path fill="none" stroke="#004900" stroke-linecap="round" stroke-width="29.1" d="M400 610v-72"/><circle cx="409.7" cy="612.2" r="13.4" fill="#004900"/><circle cx="406.9" cy="574.4" r="16.3" fill="#004900"/><circle cx="393.4" cy="574.4" r="16.3" fill="#004900"/><path fill="none" stroke="#fff" stroke-linecap="round" stroke-width="8.4" d="M400 537v23m0 29v21"/><path fill="none" stroke="#fff" stroke-linecap="round" stroke-linejoin="round" stroke-width="8.4" d="M399 574h1"/></g><g transform="matrix(1.5015 0 0 1.14938 -347 -328)"><circle cx="391.4" cy="540.3" r="13.4" fill="#004900"/><circle cx="408.7" cy="540.3" r="13.4" fill="#004900"/><circle cx="390.7" cy="612.2" r="13.4" fill="#004900"/><path fill="none" stroke="#004900" stroke-linecap="round" stroke-width="29.1" d="M400 610v-72"/><circle cx="409.7" cy="612.2" r="13.4" fill="#004900"/><circle cx="406.9" cy="574.4" r="16.3" fill="#004900"/><circle cx="393.4" cy="574.4" r="16.3" fill="#004900"/><path fill="none" stroke="#fff" stroke-linecap="round" stroke-width="8.4" d="M400 537v23m0 29v21"/><path fill="none" stroke="#fff" stroke-linecap="round" stroke-linejoin="round" stroke-width="8.4" d="M399 574h1"/></g><g transform="matrix(1.5015 0 0 1.14938 -555 -460)"><circle cx="391.4" cy="540.3" r="13.4" fill="#004900"/><circle cx="408.7" cy="540.3" r="13.4" fill="#004900"/><circle cx="390.7" cy="612.2" r="13.4" fill="#004900"/><path fill="none" stroke="#004900" stroke-linecap="round" stroke-width="29.1" d="M400 610v-72"/><circle cx="409.7" cy="612.2" r="13.4" fill="#004900"/><circle cx="406.9" cy="574.4" r="16.3" fill="#004900"/><circle cx="393.4" cy="574.4" r="16.3" fill="#004900"/><path fill="none" stroke="#fff" stroke-linecap="round" stroke-width="8.4" d="M400 537v23m0 29v21"/><path fill="none" stroke="#fff" stroke-linecap="round" stroke-linejoin="round" stroke-width="8.4" d="M399 574h1"/></g><g transform="matrix(1.5015 0 0 1.14938 -347 -460)"><circle cx="391.4" cy="540.3" r="13.4" fill="#004900"/><circle cx="408.7" cy="540.3" r="13.4" fill="#004900"/><circle cx="390.7" cy="612.2" r="13.4" fill="#004900"/><path fill="none" stroke="#004900" stroke-linecap="round" stroke-width="29.1" d="M400 610v-72"/><circle cx="409.7" cy="612.2" r="13.4" fill="#004900"/><circle cx="406.9" cy="574.4" r="16.3" fill="#004900"/><circle cx="393.4" cy="574.4" r="16.3" fill="#004900"/><path fill="none" stroke="#fff" stroke-linecap="round" stroke-width="8.4" d="M400 537v23m0 29v21"/><path fill="none" stroke="#fff" stroke-linecap="round" stroke-linejoin="round" stroke-width="8.4" d="M399 574h1"/></g><g transform="matrix(1.5015 0 0 1.14938 -451 -460)"><circle cx="391.4" cy="540.3" r="13.4" fill="#b93c3c"/><circle cx="408.7" cy="540.3" r="13.4" fill="#b93c3c"/><circle cx="390.7" cy="612.2" r="13.4" fill="#b93c3c"/><path fill="none" stroke="#b93c3c" stroke-linecap="round" stroke-width="29.1" d="M400 610v-72"/><circle cx="409.7" cy="612.2" r="13.4" fill="#b93c3c"/><circle cx="406.9" cy="574.4" r="16.3" fill="#b93c3c"/><circle cx="393.4" cy="574.4" r="16.3" fill="#b93c3c"/><path fill="none" stroke="#fff" stroke-linecap="round" stroke-width="8.4" d="M400 537v23m0 29v21"/><path fill="none" stroke="#fff" stroke-linecap="round" stroke-linejoin="round" stroke-width="8.4" d="M399 574h1"/></g><g transform="matrix(1.5015 0 0 1.14938 -451 -328)"><circle cx="391.4" cy="540.3" r="13.4" fill="#b93c3c"/><circle cx="408.7" cy="540.3" r="13.4" fill="#b93c3c"/><circle cx="390.7" cy="612.2" r="13.4" fill="#b93c3c"/><path fill="none" stroke="#b93c3c" stroke-linecap="round" stroke-width="29.1" d="M400 610v-72"/><circle cx="409.7" cy="612.2" r="13.4" fill="#b93c3c"/><circle cx="406.9" cy="574.4" r="16.3" fill="#b93c3c"/><circle cx="393.4" cy="574.4" r="16.3" fill="#b93c3c"/><path fill="none" stroke="#fff" stroke-linecap="round" stroke-width="8.4" d="M400 537v23m0 29v21"/><path fill="none" stroke="#fff" stroke-linecap="round" stroke-linejoin="round" stroke-width="8.4" d="M399 574h1"/></g><g transform="matrix(1.5015 0 0 1.14938 -555 -595)"><circle cx="391.4" cy="540.3" r="13.4" fill="#004900"/><circle cx="408.7" cy="540.3" r="13.4" fill="#004900"/><circle cx="390.7" cy="612.2" r="13.4" fill="#004900"/><path fill="none" stroke="#004900" stroke-linecap="round" stroke-width="29.1" d="M400 610v-72"/><circle cx="409.7" cy="612.2" r="13.4" fill="#004900"/><circle cx="406.9" cy="574.4" r="16.3" fill="#004900"/><circle cx="393.4" cy="574.4" r="16.3" fill="#004900"/><path fill="none" stroke="#fff" stroke-linecap="round" stroke-width="8.4" d="M400 537v23m0 29v21"/><path fill="none" stroke="#fff" stroke-linecap="round" stroke-linejoin="round" stroke-width="8.4" d="M399 574h1"/></g><g transform="matrix(1.5015 0 0 1.14938 -347 -595)"><circle cx="391.4" cy="540.3" r="13.4" fill="#004900"/><circle cx="408.7" cy="540.3" r="13.4" fill="#004900"/><circle cx="390.7" cy="612.2" r="13.4" fill="#004900"/><path fill="none" stroke="#004900" stroke-linecap="round" stroke-width="29.1" d="M400 610v-72"/><circle cx="409.7" cy="612.2" r="13.4" fill="#004900"/><circle cx="406.9" cy="574.4" r="16.3" fill="#004900"/><circle cx="393.4" cy="574.4" r="16.3" fill="#004900"/><path fill="none" stroke="#fff" stroke-linecap="round" stroke-width="8.4" d="M400 537v23m0 29v21"/><path fill="none" stroke="#fff" stroke-linecap="round" stroke-linejoin="round" stroke-width="8.4" d="M399 574h1"/></g></svg>