<svg xmlns="http://www.w3.org/2000/svg" width="300" height="400"><path fill="#b93c3c" fill-rule="evenodd" d="M233 83c-62 17-87 22-167 43-5 0-16-1-21-9-5-6-10 0-10 7 1 8 1 15 5 19 21 20 29 41 32 65 0 6-5 10 3 10s84-7 141-2c4 1 5-3 5-5-3-15 24-61 33-80 2-4 12-5 14-5 0 0 3-2 1-4-11-14-33-40-36-39Zm-22 35c9 0 14 3 10 9-11 22-24 66-28 65-61 0-88 4-94 2-2-1-5-25-19-42-3-3-2-5 2-6 20-4 100-28 129-28z"/><path fill="#b93c3c" fill-rule="evenodd" d="M112 31c1 3 0 9 5 11 5 0 15 9 13 22 0 143 3 153 0 264-4 40 6 61 9 66 2 5 4 4 5 1 10-27 15-9 12-78-1-115-2-241 14-251 7-5 16-22 14-26 2-3-39-41-43-37-5 6-28 16-29 28z"/></svg>