<svg xmlns="http://www.w3.org/2000/svg" width="300" height="400"><path fill="#004900" fill-rule="evenodd" d="M151 110c25 9 52 76 72 129l4 5c18 11 40 26 49 34 17 11 25 4 21-8l-20-35c-4-7-14-15-27-24-25-19-41-59-87-116-2-2-13 10-12 15z"/><path fill="#004900" fill-rule="evenodd" d="M161 104c-56 78-91 123-145 157-15 10-18 1-7-8 67-54 81-99 137-160z"/><path fill="#004900" fill-rule="evenodd" d="M145 72c-21 19-34 42-61 56-12 7-12 15 3 13 25-4 52-18 73-30 17-11 15-64-15-39zm51-7c-6 19-11 34-22 54l13 12c18-37 25-54 34-57 3-2 1-7-1-10-3-6-6-13-10-17-9-9-11 10-14 18zm38 55c-4-5-9-3-12 4s-18 27-37 45c-6 6 0 12 10 5 16-16 30-28 40-30 5-1 13 2 12-4-2-8-7-14-13-20zM67 149c-14-13-25-9-10 11 29 40 47 48 40 63h14c7-8 4-3-1-28-2-7-22-17-43-46z"/><path fill="#004900" fill-rule="evenodd" d="m82 191-20 18c25-2 36 0 61-14 18-10 7-19-3-16-21 9-20 8-38 12zm-24 57c-6 3-13-2-9 6 4 7 11 6 19 3 6-2 51-36 80-41l1-19c-47 16-86 47-91 51z"/><path fill="#004900" fill-rule="evenodd" d="M163 142c-2-3-8-7-11 2-1 5 1 9 1 16-3 41-12 54-15 71-2 9 2 15 9 2l27-67c1-8-3-16-11-24zm-53 87-11 5c7 17-9 74-21 73-15-2-29-12-40-20h-5c12 20 28 43 46 46 5 1 16-6 19-10 21-44 28-66 23-78-2-6-9-10-11-16z"/><path fill="#004900" fill-rule="evenodd" d="m105 265-2-13c-26 9-47 24-67 27-8 1-14-2-20-6-4-3-6 0-5 4 2 8 3 8 9 12 5 3 9 3 17 3 20-2 45-20 68-27zm42-48-6 19c23-3 36-4 56-12 16-11 7-15-2-16-28 3-19 5-48 9z"/><path fill="#004900" fill-rule="evenodd" d="m173 223-15 4c0 30 1 35-2 43-9 17-2 21-45 53-7 5-1 13 6 12 30-5 57-23 58-30 5-20 1-50-2-82z"/><path fill="#004900" fill-rule="evenodd" d="m112 260-1 18c-3-2 71-6 117-3 6 0 15 0 13-5-10-15-16-17-22-17l-9 2-98 5zm80 40c12 8 17 16 20 34 0 1-1 5 5 6 20 3 41-6 43-16 1-19-37-36-64-34-5 1-6 8-4 10z"/></svg>