<svg xmlns="http://www.w3.org/2000/svg" width="300" height="400"><path fill="#19328c" fill-rule="evenodd" d="M35 112c-8 2-18-10-6-13 37-8 163-30 177-37 13-4 42 19 60 29 11 7 6 15-3 19-7 2-48 6-69 4-4-1-3-12-12-14-43-8-104 7-147 12Z"/><path fill="#19328c" fill-rule="evenodd" d="M192 111c-2 4-2 9-4 10-5 1-10 0-12 4-4 7-26 25-41 38-4 3-11 1-12-6v25h11c9-8 35-35 47-35 9-1 19-4 22-11 2-6-4-10-4-14 1-3 9-7 11-8 5 0-17-7-18-3z"/><path fill="#19328c" fill-rule="evenodd" d="M57 196c45-12 149-48 165-41 19 10 54 34 54 44s0 11-7 19c-11 12-47 72-53 95-1 6 0 17-4 22-6 7-75-1-120-3-15-1-22-18 1-18 29-1 78-2 84-10 5-8 42-91 42-100 0-6-9-19-15-23-6-5-100 26-142 33z"/><path fill="#19328c" fill-rule="evenodd" d="M39 208c12 25 37 72 47 117l28-2c-7-34-24-91-40-119-28-51-59-44-35 4Zm84-70c-3-15-14-12-12 3l16 181h12zm58 1h-12l-21 180h11z"/></svg>