<svg xmlns="http://www.w3.org/2000/svg" width="300" height="400"><path fill="#142896" fill-rule="evenodd" d="M233 105c-50 12-153 35-158 30-14-11-29-4-20 10 14 27 37 52 48 81 2 4 4 5 6 5 31 0 53-7 83-10 5 0 11 5 15 3 3-1 4-8 5-12 6-25 25-46 36-71 1-3 9-3 9-6-1-11-16-30-24-30zm-21 33c11 0 0 25-5 26-5 0-6-8-12-8-5 1-4 4-9 6-29 6-51 8-82 12-4 0-13-17-8-19 37-9 99-17 116-17zm-15 49c4 7-2 13-7 14-27 4-70 12-74 8-2-3-7-11-6-16 10-4 83-14 87-6z"/><path fill="#142896" fill-rule="evenodd" d="M133 9c-16-8-18 5-16 14 6 19 13 28 22 41 2 3 4 7 3 9l-2 203c0 6-1 26-5 23-14-12-19-19-42-50-10-15-18-7-6 12 38 53 41 58 42 112 1 29 29 24 31 6 3-19-1-50-2-72 0-82 0-154 12-233 2-13 21-23 31-26 4-2 9-14 0-14-22-3-47-16-68-25z"/><path fill="#142896" fill-rule="evenodd" d="M104 100c-26-1-7 16-1 15 32-3 84-11 117-19 2 0 0-17-16-19-4 0-4 3-9 5-25 6-69 20-91 18zm10 108c-19 38-35 51-90 77-21 9-19 23 6 13 70-29 84-47 96-83Zm43 1c22 28 53 104 69 93 14-10 31-11 38-9 10 3 10 8 16 11 14 7 11-2 6-9-13-21-73-34-110-91z"/></svg>