<svg xmlns="http://www.w3.org/2000/svg" width="300" height="400"><g fill="#d71e1e" transform="translate(0 -652)"><path fill-rule="evenodd" d="M60 879c102 11 96-16 181-18 18-3 17-18-1-16-90 2-59 35-178 16-29-5-24 14-2 18z"/><path fill-rule="evenodd" d="M152 836c1-4-8-10-14-3l-10 17c-2 2-3 8-1 9 8 6 7 5 12 15l20-2c-6-8-7-8-10-16-1-10 0-10 3-20zm26-38c-3-2-4-3-7 0l-15 16v5l9 8c4 5 5 8 3 13-4 9-6 19-6 24l21-3c-4-10-4-12 3-22 5-6 11-7 6-16zm22 80-8 1c-26 4-45 14-88 12-6 0-11 3-10 8 0 10 7 62 8 67 1 6 10 7 11 1v-8l2-2 57-5 2 1-1 47c0 1 0 3 2 4 3 3 24 2 29-2 2-1 2-1 2-4-3-34 0-77 2-110 1-8-3-10-8-10zm-27 17c6-1 2 16 0 16l-59 5c-5-1-5-13-1-14 26 0 36-3 60-7zm0 29c2 0 2 13-1 13l-57 5c-4-1-4-12-1-13z"/><path fill-rule="evenodd" d="m153 895-19 1-6 90c0 11 5 21 12 21l18-6z"/><path fill-rule="evenodd" d="m92 1004 1 8c54 18 41-9 96-15v-5c-42-3-65 13-97 12z"/><path fill-rule="evenodd" d="M87 944c-5-14-19-11-16 1 14 44 18 68 20 71 11 18 18 14 19-2 0-5-14-44-23-70z"/><path fill-rule="evenodd" d="M44 973c-9-1-8 9-3 12 59 26 123-9 177-6l9 3c9 5 4 20-1 23-22 10-17 0-41 11-2 1-8 3-10 2-9-3-17-8-22-13l-12 6c7 8 17 12 26 16 7 3 14 3 19 3 25 0 48-9 60-11 4 0 8-6 9-9 10-16 6-19-1-35-4-7-15-8-21-9-60-3-138 19-189 7zm75-300c-7 5-10 6-13 16-1 2-1 8 1 12 18 18-47 56-70 72-15 10-10 21 10 12 25-12 71-26 79-62 1-4 3-6 7-7 6-1 1-27-3-34-3-7-8-10-11-9z"/><path fill-rule="evenodd" d="M101 739c1 4 5 16 4 21-3 9-8 12-10 22-1 5 17 21 21 19 7-4 10-13 10-17-1-19-12-33-12-55zm26-59c41 16 59-16 96-24 11-2 21 3 30 4 17 5 3 32-10 26-33-16-60 8-91 15-2 0-3-3-5-5-5-6-12-1-17-3z"/><path fill-rule="evenodd" d="m175 687-28 7c9 11-12 53-22 81l25-4c3-29 19-56 25-84z"/><path fill-rule="evenodd" d="M114 717c14 34 61-14 91-11v19c-30-6-82 35-95 7z"/><path fill-rule="evenodd" d="M199 697c-2-1-9 7-9 10 0 24 0 47-2 72-1 11 21 2 22-3 3-26 1-74 0-75l-11-4z"/><path fill-rule="evenodd" d="M113 773c96-30 147-8 150-2 1 3 1 10-1 13-17 25-106-39-146 11z"/><circle cx="53.4" cy="720.5" r="19.8"/></g></svg>