<svg xmlns="http://www.w3.org/2000/svg" xmlns:xlink="http://www.w3.org/1999/xlink" width="300" height="400"><g transform="translate(512 -163) scale(.76584)"><circle cx="-472.8" cy="341.3" r="107.6" stroke="#fff" stroke-linejoin="round" stroke-width="17.2"/><circle cx="-472.8" cy="341.6" r="87.8" fill="#fff"/><path id="a" fill="none" fill-opacity="1" fill-rule="nonzero" stroke="#000" stroke-dasharray="none" stroke-dashoffset="0" stroke-linecap="round" stroke-linejoin="round" stroke-miterlimit="4" stroke-opacity="1" stroke-width="125.7" d="M-93-74a164 164 0 0 1-225-13 164 164 0 0 1 0-225 164 164 0 0 1 225-13" opacity="1" transform="matrix(.10477 0 0 .08588 -506 359)"/><use xlink:href="#a" id="b" width="100%" height="100%" x="0" y="0" transform="rotate(-60 -473 342)"/><use xlink:href="#b" id="c" width="100%" height="100%" x="0" y="0" transform="rotate(-60 -474 343)"/><use xlink:href="#c" id="d" width="100%" height="100%" x="0" y="0" transform="rotate(-60 -474 343)"/><use xlink:href="#d" id="e" width="100%" height="100%" x="0" y="0" transform="rotate(-60 -474 343)"/><use xlink:href="#e" width="100%" height="100%" transform="rotate(-60 -474 343)"/><circle cx="-472.9" cy="341.5" r="18.2" fill="none" stroke="#000" stroke-linejoin="round" stroke-width="12.3"/></g><g transform="translate(512 40) scale(.76584)"><circle cx="-472.8" cy="341.3" r="107.6" stroke="#fff" stroke-linejoin="round" stroke-width="17.2"/><circle cx="-472.8" cy="341.6" r="87.8" fill="#fff"/><path fill="none" stroke="#000" stroke-linecap="round" stroke-linejoin="round" stroke-width="125.7" d="M-93-74a164 164 0 0 1-225-13 164 164 0 0 1 0-225 164 164 0 0 1 225-13" transform="matrix(.10477 0 0 .08588 -506 359)"/><use xlink:href="#a" width="100%" height="100%" transform="rotate(-60 -473 342)"/><use xlink:href="#b" width="100%" height="100%" transform="rotate(-60 -474 343)"/><use xlink:href="#c" width="100%" height="100%" transform="rotate(-60 -474 343)"/><use xlink:href="#d" width="100%" height="100%" transform="rotate(-60 -474 343)"/><use xlink:href="#e" width="100%" height="100%" transform="rotate(-60 -474 343)"/><circle cx="-472.9" cy="341.5" r="18.2" fill="none" stroke="#000" stroke-linejoin="round" stroke-width="12.3"/></g></svg>