<svg xmlns="http://www.w3.org/2000/svg" width="300" height="400"><path fill="#fff" fill-rule="evenodd" d="m200 23-37 3c-31 5-86 29-103 21L37 36c-9-6-15-3-10 9l62 72c4 6 12 5 18 4 41-15 66-10 100 0 8 2 12 1 18-4 19-16 47-40 47-47 1-4 4-24-3-28-16-9-31-19-69-19zm34 28c5 4 3 9 0 14-7 13-14 22-28 33-2 2-4 3-7 3-15-1-6-12-83 2-5 0-7-1-9-3L77 63c-2-5 3-4 7-4 43 0 104-39 150-8z"/><path fill="#fff" fill-rule="evenodd" d="M118 41c3 21 4 42 4 62h16c16-22 10-44 6-66zm79-16c-4-19-22-9-25-1l-13 77 17 1c11-27 24-62 30-68z"/><path fill="#f0a023" fill-rule="evenodd" d="M60 227c102 11 96-16 181-19 18-2 17-17-1-16-90 3-59 35-178 16-29-5-24 15-2 19z"/><path fill="#f0a023" fill-rule="evenodd" d="M152 184c1-4-8-11-14-4l-10 18c-2 2-3 7-1 9 8 6 7 5 12 15l20-2c-6-9-7-8-10-17-1-9 0-10 3-19zm26-38c-3-2-4-3-7 0l-15 15v5l9 9c4 4 5 7 3 12-4 10-6 20-6 25l21-3c-4-10-4-13 3-22 5-6 11-8 6-16zm22 80-8 1c-26 4-45 13-88 12-6 0-11 3-10 7 0 10 7 63 8 67 1 7 10 7 11 2v-8l2-2 57-6 2 2-1 46c0 2 0 3 2 5 3 3 24 1 29-2 2-1 2-2 2-4-3-34 0-77 2-111 1-7-3-9-8-9zm-27 17c6-2 2 16 0 16l-59 4c-5-1-5-13-1-13 26-1 36-3 60-7zm0 29c2 0 2 12-1 13l-57 4c-4-1-4-12-1-12z"/><path fill="#f0a023" fill-rule="evenodd" d="M153 243h-19l-6 91c0 10 5 21 12 21l18-7z"/><path fill="#f0a023" fill-rule="evenodd" d="m92 351 1 8c54 19 41-8 96-15v-5c-42-3-65 14-97 12z"/><path fill="#f0a023" fill-rule="evenodd" d="M87 292c-5-14-19-11-16 1 14 43 18 67 20 71 11 18 18 13 19-3 0-5-14-43-23-69z"/><path fill="#f0a023" fill-rule="evenodd" d="M44 321c-9-1-8 9-3 11 59 27 123-9 177-5l9 3c9 5 4 19-1 22-22 10-17 0-41 12-2 1-8 2-10 1-9-3-17-8-22-12l-12 5c7 9 17 13 26 17 7 3 14 2 19 3 25 0 48-10 60-11 4-1 8-7 9-9 10-16 6-19-1-36-4-6-15-8-21-8-60-3-138 18-189 7z"/></svg>