<svg xmlns="http://www.w3.org/2000/svg" width="300" height="400"><g transform="translate(0 -652)"><circle cx="100.5" cy="726.4" r="61.1" fill="#fff"/><circle cx="100.6" cy="978.1" r="61.1" fill="#fff"/><circle cx="199.5" cy="978.1" r="61.1" fill="#fff"/><circle cx="199.5" cy="890.8" r="61.1" fill="#fff"/><circle cx="100.6" cy="890.8" r="61.1" fill="#fff"/><circle cx="100.6" cy="890.8" r="46.1"/><circle cx="100.6" cy="890.8" r="39.7" fill="#f0a023"/><path fill="none" stroke="#000" stroke-dasharray="14 14" stroke-linecap="round" stroke-linejoin="round" stroke-width="6.8" d="M122 891a22 22 0 0 0-21-22 22 22 0 0 0-22 21 22 22 0 0 0 21 22 22 22 0 0 0 22-20"/><circle cx="100.6" cy="890.8" r="8"/><circle cx="100.6" cy="890.8" r="3.7" fill="#f0a023"/><circle cx="199.5" cy="890.8" r="46.1"/><circle cx="199.5" cy="890.8" r="39.7" fill="#f0a023"/><path fill="none" stroke="#000" stroke-dasharray="14 14" stroke-linecap="round" stroke-linejoin="round" stroke-width="6.8" d="M221 891a22 22 0 0 0-21-22 22 22 0 0 0-22 21 22 22 0 0 0 20 22 22 22 0 0 0 23-20"/><circle cx="199.5" cy="890.8" r="8"/><circle cx="199.5" cy="890.8" r="3.7" fill="#f0a023"/><circle cx="100.6" cy="978.1" r="46.1"/><circle cx="100.6" cy="978.1" r="39.7" fill="#f0a023"/><path fill="none" stroke="#000" stroke-dasharray="14 14" stroke-linecap="round" stroke-linejoin="round" stroke-width="6.8" d="M122 978a22 22 0 0 0-21-21 22 22 0 0 0-22 20 22 22 0 0 0 21 23 22 22 0 0 0 22-20"/><circle cx="100.6" cy="978.1" r="8"/><circle cx="100.6" cy="978.1" r="3.7" fill="#f0a023"/><circle cx="199.5" cy="978.1" r="46.1"/><circle cx="199.5" cy="978.1" r="39.7" fill="#f0a023"/><path fill="none" stroke="#000" stroke-dasharray="14 14" stroke-linecap="round" stroke-linejoin="round" stroke-width="6.8" d="M221 978a22 22 0 0 0-21-21 22 22 0 0 0-22 20 22 22 0 0 0 20 23 22 22 0 0 0 23-20"/><circle cx="199.5" cy="978.1" r="8"/><circle cx="199.5" cy="978.1" r="3.7" fill="#f0a023"/><circle cx="199.6" cy="726.4" r="61.1" fill="#fff"/><circle cx="199.6" cy="726.4" r="46.1"/><circle cx="199.6" cy="726.4" r="39.7" fill="#fff"/><path fill="none" stroke="#000" stroke-dasharray="14 14" stroke-linecap="round" stroke-linejoin="round" stroke-width="6.8" d="M221 726a22 22 0 0 0-21-21 22 22 0 0 0-22 21 22 22 0 0 0 21 22 22 22 0 0 0 22-20"/><circle cx="199.6" cy="726.4" r="8"/><circle cx="199.6" cy="726.4" r="3.7" fill="#fff"/><circle cx="100.5" cy="726.4" r="46.1"/><circle cx="100.5" cy="726.4" r="39.7" fill="#fff"/><path fill="none" stroke="#000" stroke-dasharray="14 14" stroke-linecap="round" stroke-linejoin="round" stroke-width="6.8" d="M122 726a22 22 0 0 0-21-21 22 22 0 0 0-22 21 22 22 0 0 0 20 22 22 22 0 0 0 23-20"/><circle cx="100.5" cy="726.4" r="8"/><circle cx="100.5" cy="726.4" r="3.7" fill="#fff"/></g></svg>