<svg xmlns="http://www.w3.org/2000/svg" width="300" height="400"><g transform="translate(0 -652)"><circle cx="100.6" cy="988.2" r="61.1" fill="#fff"/><circle cx="199.5" cy="988.2" r="61.1" fill="#fff"/><circle cx="199.5" cy="900.8" r="61.1" fill="#fff"/><circle cx="232.2" cy="818.3" r="61.1" fill="#fff"/><circle cx="150" cy="767.3" r="61.1" fill="#fff"/><circle cx="100.6" cy="900.8" r="61.1" fill="#fff"/><circle cx="100.6" cy="900.8" r="46.1"/><circle cx="100.6" cy="900.8" r="39.7" fill="#f0a023"/><path fill="none" stroke="#000" stroke-dasharray="14 14" stroke-linecap="round" stroke-linejoin="round" stroke-width="6.8" d="M122 901a22 22 0 0 0-21-22 22 22 0 0 0-22 21 22 22 0 0 0 21 22 22 22 0 0 0 22-20"/><circle cx="100.6" cy="900.8" r="8"/><circle cx="100.6" cy="900.8" r="3.7" fill="#f0a023"/><circle cx="67.8" cy="716.3" r="61.1" fill="#fff"/><circle cx="67.8" cy="716.3" r="46.1"/><circle cx="67.8" cy="716.3" r="39.7" fill="#fff"/><path fill="none" stroke="#000" stroke-dasharray="14 14" stroke-linecap="round" stroke-linejoin="round" stroke-width="6.8" d="M89 716a22 22 0 0 0-21-21 22 22 0 0 0-22 21 22 22 0 0 0 21 22 22 22 0 0 0 22-20"/><circle cx="67.8" cy="716.3" r="8"/><circle cx="67.8" cy="716.3" r="3.7" fill="#fff"/><circle cx="150" cy="767.3" r="46.1"/><circle cx="150" cy="767.3" r="39.7" fill="#fff"/><path fill="none" stroke="#000" stroke-dasharray="14 14" stroke-linecap="round" stroke-linejoin="round" stroke-width="6.8" d="M172 767a22 22 0 0 0-22-21 22 22 0 0 0-22 21 22 22 0 0 0 21 22 22 22 0 0 0 23-20"/><circle cx="150" cy="767.3" r="8"/><circle cx="150" cy="767.3" r="3.7" fill="#fff"/><circle cx="232.2" cy="818.3" r="46.1"/><circle cx="232.2" cy="818.3" r="39.7" fill="#fff"/><path fill="none" stroke="#000" stroke-dasharray="14 14" stroke-linecap="round" stroke-linejoin="round" stroke-width="6.8" d="M254 818a22 22 0 0 0-22-21 22 22 0 0 0-21 21 22 22 0 0 0 20 22 22 22 0 0 0 23-20"/><circle cx="232.2" cy="818.3" r="8"/><circle cx="232.2" cy="818.3" r="3.7" fill="#fff"/><circle cx="199.5" cy="900.8" r="46.1"/><circle cx="199.5" cy="900.8" r="39.7" fill="#f0a023"/><path fill="none" stroke="#000" stroke-dasharray="14 14" stroke-linecap="round" stroke-linejoin="round" stroke-width="6.8" d="M221 901a22 22 0 0 0-21-22 22 22 0 0 0-22 21 22 22 0 0 0 20 22 22 22 0 0 0 23-20"/><circle cx="199.5" cy="900.8" r="8"/><circle cx="199.5" cy="900.8" r="3.7" fill="#f0a023"/><circle cx="100.6" cy="988.2" r="46.1"/><circle cx="100.6" cy="988.2" r="39.7" fill="#f0a023"/><path fill="none" stroke="#000" stroke-dasharray="14 14" stroke-linecap="round" stroke-linejoin="round" stroke-width="6.8" d="M122 988a22 22 0 0 0-21-21 22 22 0 0 0-22 21 22 22 0 0 0 21 22 22 22 0 0 0 22-20"/><circle cx="100.6" cy="988.2" r="8"/><circle cx="100.6" cy="988.2" r="3.7" fill="#f0a023"/><circle cx="199.5" cy="988.2" r="46.1"/><circle cx="199.5" cy="988.2" r="39.7" fill="#f0a023"/><path fill="none" stroke="#000" stroke-dasharray="14 14" stroke-linecap="round" stroke-linejoin="round" stroke-width="6.8" d="M221 988a22 22 0 0 0-21-21 22 22 0 0 0-22 21 22 22 0 0 0 20 22 22 22 0 0 0 23-20"/><circle cx="199.5" cy="988.2" r="8"/><circle cx="199.5" cy="988.2" r="3.7" fill="#f0a023"/></g></svg>