<svg xmlns="http://www.w3.org/2000/svg" width="300" height="400"><g transform="translate(0 -652)"><ellipse cx="239.4" cy="679.6" fill="#fff" rx="23.7" ry="18.3"/><ellipse cx="238.2" cy="822.9" fill="#fff" rx="23.7" ry="18.3"/><ellipse cx="242.5" cy="745.2" fill="#fff" rx="31.4" ry="24.3"/><ellipse cx="267.2" cy="679.6" fill="#fff" rx="23.7" ry="18.3"/><path fill="none" stroke="#fff" stroke-linecap="round" stroke-width="52.8" d="M253 812V683"/><ellipse cx="253.3" cy="682.6" rx="8.6" ry="8.3"/><path fill="none" stroke="#fff" stroke-linecap="round" stroke-width="34.8" d="M74 744h63"/><path fill="none" stroke="#fff" stroke-linecap="round" stroke-width="46.4" d="m120 781-50-13"/><path fill="none" stroke="#fff" stroke-linecap="round" stroke-width="45" d="m66 815 105-87"/><ellipse cx="33.7" cy="679.6" fill="#fff" rx="23.7" ry="18.3"/><ellipse cx="61.5" cy="679.6" fill="#fff" rx="23.7" ry="18.3"/><ellipse cx="32.5" cy="822.9" fill="#fff" rx="23.7" ry="18.3"/><path fill="none" stroke="#fff" stroke-linecap="round" stroke-width="52.8" d="M48 812V683"/><ellipse cx="47.6" cy="682.6" rx="8.6" ry="8.3"/><ellipse cx="63" cy="822.9" fill="#fff" rx="23.7" ry="18.3"/><ellipse cx="58.6" cy="745.2" fill="#fff" rx="31.4" ry="24.3"/><ellipse cx="36.8" cy="745.2" fill="#fff" rx="31.4" ry="24.3"/><path fill="none" stroke="#000" stroke-linecap="round" stroke-width="12" d="M48 685v36m0 52v45"/><path fill="none" stroke="#000" stroke-linecap="round" stroke-linejoin="round" stroke-width="10" d="M39 758c4-7 15-6 18 0m-18-18c4-6 15-6 18 0"/><path fill="none" stroke="#fff" stroke-linecap="round" stroke-width="34.8" d="M227 744h-64"/><ellipse cx="268.7" cy="822.9" fill="#fff" rx="23.7" ry="18.3"/><path fill="none" stroke="#fff" stroke-linecap="round" stroke-width="45" d="m234 815-104-87"/><ellipse cx="264.3" cy="745.2" fill="#fff" rx="31.4" ry="24.3"/><rect width="55.3" height="74" x="122" y="708" fill="#fff" rx="1.9" ry="2.8"/><path fill="none" stroke="#000" stroke-linecap="round" stroke-width="12" d="m116 764 6 7m14-18 14-10v-15"/><path fill="none" stroke="#fff" stroke-linecap="round" stroke-width="46.4" d="m180 781 50-13"/><path fill="none" stroke="#000" stroke-linecap="round" stroke-width="12" d="M253 685v36m-22 87-33-27m55-8v45"/><path fill="none" stroke="#000" stroke-linecap="round" stroke-linejoin="round" stroke-width="10" d="M244 758c4-7 15-6 19 0m-19-18c4-6 15-6 19 0"/><path fill="none" stroke="#000" stroke-linecap="round" stroke-width="12" d="m185 764-7 7m38-9-13-11m-39 2-14-10v-15m-80 80 33-27m-19-19 13-11"/></g><g transform="matrix(1 0 0 -1 0 1052)"><ellipse cx="239.4" cy="679.6" fill="#fff" rx="23.7" ry="18.3"/><ellipse cx="238.2" cy="822.9" fill="#fff" rx="23.7" ry="18.3"/><ellipse cx="242.5" cy="745.2" fill="#fff" rx="31.4" ry="24.3"/><ellipse cx="267.2" cy="679.6" fill="#fff" rx="23.7" ry="18.3"/><path fill="none" stroke="#fff" stroke-linecap="round" stroke-width="52.8" d="M253 812V683"/><ellipse cx="253.3" cy="682.6" rx="8.6" ry="8.3"/><path fill="none" stroke="#fff" stroke-linecap="round" stroke-width="34.8" d="M74 744h63"/><path fill="none" stroke="#fff" stroke-linecap="round" stroke-width="46.4" d="m120 781-50-13"/><path fill="none" stroke="#fff" stroke-linecap="round" stroke-width="45" d="m66 815 105-87"/><ellipse cx="33.7" cy="679.6" fill="#fff" rx="23.7" ry="18.3"/><ellipse cx="61.5" cy="679.6" fill="#fff" rx="23.7" ry="18.3"/><ellipse cx="32.5" cy="822.9" fill="#fff" rx="23.7" ry="18.3"/><path fill="none" stroke="#fff" stroke-linecap="round" stroke-width="52.8" d="M48 812V683"/><ellipse cx="47.6" cy="682.6" rx="8.6" ry="8.3"/><ellipse cx="63" cy="822.9" fill="#fff" rx="23.7" ry="18.3"/><ellipse cx="58.6" cy="745.2" fill="#fff" rx="31.4" ry="24.3"/><ellipse cx="36.8" cy="745.2" fill="#fff" rx="31.4" ry="24.3"/><path fill="none" stroke="#000" stroke-linecap="round" stroke-width="12" d="M48 685v36m0 52v45"/><path fill="none" stroke="#000" stroke-linecap="round" stroke-linejoin="round" stroke-width="10" d="M39 758c4-7 15-6 18 0m-18-18c4-6 15-6 18 0"/><path fill="none" stroke="#fff" stroke-linecap="round" stroke-width="34.8" d="M227 744h-64"/><ellipse cx="268.7" cy="822.9" fill="#fff" rx="23.7" ry="18.3"/><path fill="none" stroke="#fff" stroke-linecap="round" stroke-width="45" d="m234 815-104-87"/><ellipse cx="264.3" cy="745.2" fill="#fff" rx="31.4" ry="24.3"/><rect width="55.3" height="74" x="122" y="708" fill="#fff" rx="1.9" ry="2.8"/><path fill="none" stroke="#000" stroke-linecap="round" stroke-width="12" d="m116 764 6 7m14-18 14-10v-15"/><path fill="none" stroke="#fff" stroke-linecap="round" stroke-width="46.4" d="m180 781 50-13"/><path fill="none" stroke="#000" stroke-linecap="round" stroke-width="12" d="M253 685v36m-22 87-33-27m55-8v45"/><path fill="none" stroke="#000" stroke-linecap="round" stroke-linejoin="round" stroke-width="10" d="M244 758c4-7 15-6 19 0m-19-18c4-6 15-6 19 0"/><path fill="none" stroke="#000" stroke-linecap="round" stroke-width="12" d="m185 764-7 7m38-9-13-11m-39 2-14-10v-15m-80 80 33-27m-19-19 13-11"/></g></svg>