<svg xmlns="http://www.w3.org/2000/svg" width="300" height="400"><g transform="translate(0 -652)"><circle cx="237.4" cy="715.4" r="61.1" fill="#fff"/><circle cx="62.8" cy="715.4" r="61.1" fill="#fff"/><circle cx="150.1" cy="715.4" r="61.1" fill="#fff"/><circle cx="150.1" cy="715.4" r="46.1"/><circle cx="150.1" cy="715.4" r="39.7" fill="#fff"/><path fill="none" stroke="#000" stroke-dasharray="14 14" stroke-linecap="round" stroke-linejoin="round" stroke-width="6.8" d="M172 715a22 22 0 0 0-22-21 22 22 0 0 0-21 21 22 22 0 0 0 20 22 22 22 0 0 0 23-20"/><circle cx="150.1" cy="715.4" r="8"/><circle cx="150.1" cy="715.4" r="3.7" fill="#fff"/><circle cx="62.8" cy="715.4" r="46.1"/><circle cx="62.8" cy="715.4" r="39.7" fill="#fff"/><path fill="none" stroke="#000" stroke-dasharray="14 14" stroke-linecap="round" stroke-linejoin="round" stroke-width="6.8" d="M84 715a22 22 0 0 0-21-21 22 22 0 0 0-22 21 22 22 0 0 0 21 22 22 22 0 0 0 22-20"/><circle cx="62.8" cy="715.4" r="8"/><circle cx="62.8" cy="715.4" r="3.7" fill="#fff"/><circle cx="237.4" cy="715.4" r="46.1"/><circle cx="237.4" cy="715.4" r="39.7" fill="#fff"/><path fill="none" stroke="#000" stroke-dasharray="14 14" stroke-linecap="round" stroke-linejoin="round" stroke-width="6.8" d="M259 715a22 22 0 0 0-21-21 22 22 0 0 0-22 21 22 22 0 0 0 20 22 22 22 0 0 0 23-20"/><circle cx="237.4" cy="715.4" r="8"/><circle cx="237.4" cy="715.4" r="3.7" fill="#fff"/><circle cx="237.4" cy="989.4" r="61.1" fill="#fff"/><circle cx="62.8" cy="989.4" r="61.1" fill="#fff"/><circle cx="150.1" cy="989.4" r="61.1" fill="#fff"/><circle cx="150.1" cy="989.4" r="46.1"/><circle cx="150.1" cy="989.4" r="39.7" fill="#fff"/><path fill="none" stroke="#000" stroke-dasharray="14 14" stroke-linecap="round" stroke-linejoin="round" stroke-width="6.8" d="M172 989a22 22 0 0 0-22-21 22 22 0 0 0-21 21 22 22 0 0 0 20 22 22 22 0 0 0 23-20"/><circle cx="150.1" cy="989.4" r="8"/><circle cx="150.1" cy="989.4" r="3.7" fill="#fff"/><circle cx="62.8" cy="989.4" r="46.1"/><circle cx="62.8" cy="989.4" r="39.7" fill="#fff"/><path fill="none" stroke="#000" stroke-dasharray="14 14" stroke-linecap="round" stroke-linejoin="round" stroke-width="6.8" d="M84 989a22 22 0 0 0-21-21 22 22 0 0 0-22 21 22 22 0 0 0 21 22 22 22 0 0 0 22-20"/><circle cx="62.8" cy="989.4" r="8"/><circle cx="62.8" cy="989.4" r="3.7" fill="#fff"/><circle cx="237.4" cy="989.4" r="46.1"/><circle cx="237.4" cy="989.4" r="39.7" fill="#fff"/><path fill="none" stroke="#000" stroke-dasharray="14 14" stroke-linecap="round" stroke-linejoin="round" stroke-width="6.8" d="M259 989a22 22 0 0 0-21-21 22 22 0 0 0-22 21 22 22 0 0 0 20 22 22 22 0 0 0 23-20"/><circle cx="237.4" cy="989.4" r="8"/><circle cx="237.4" cy="989.4" r="3.7" fill="#fff"/><circle cx="63" cy="852.8" r="61.1" fill="#fff"/><circle cx="237.7" cy="852.8" r="61.1" fill="#fff"/><circle cx="150" cy="852.8" r="61.1" fill="#fff"/><circle cx="150" cy="852.8" r="46.1"/><circle cx="150" cy="852.8" r="39.7" fill="#f0a023"/><path fill="none" stroke="#000" stroke-dasharray="14 14" stroke-linecap="round" stroke-linejoin="round" stroke-width="6.8" d="M172 853a22 22 0 0 0-22-22 22 22 0 0 0-22 21 22 22 0 0 0 21 22 22 22 0 0 0 23-20"/><circle cx="150" cy="852.8" r="8"/><circle cx="150" cy="852.8" r="3.7" fill="#f0a023"/><circle cx="63" cy="852.8" r="46.1"/><circle cx="63" cy="852.8" r="39.7" fill="#f0a023"/><path fill="none" stroke="#000" stroke-dasharray="14 14" stroke-linecap="round" stroke-linejoin="round" stroke-width="6.8" d="M85 853a22 22 0 0 0-22-22 22 22 0 0 0-22 21 22 22 0 0 0 21 22 22 22 0 0 0 23-20"/><circle cx="63" cy="852.8" r="8"/><circle cx="63" cy="852.8" r="3.7" fill="#f0a023"/><circle cx="237.7" cy="852.8" r="46.1"/><circle cx="237.7" cy="852.8" r="39.7" fill="#f0a023"/><path fill="none" stroke="#000" stroke-dasharray="14 14" stroke-linecap="round" stroke-linejoin="round" stroke-width="6.8" d="M259 853a22 22 0 0 0-21-22 22 22 0 0 0-22 21 22 22 0 0 0 21 22 22 22 0 0 0 22-20"/><circle cx="237.7" cy="852.8" r="8"/><circle cx="237.7" cy="852.8" r="3.7" fill="#f0a023"/></g></svg>