<svg xmlns="http://www.w3.org/2000/svg" width="300" height="400"><defs><mask id="b" maskUnits="userSpaceOnUse"><rect width="300.1" height="400.8" y="652" fill="#ff3737" stroke-linejoin="round" stroke-width="10" ry="40"/></mask><mask id="c" maskUnits="userSpaceOnUse"><rect width="300.1" height="400.8" x="-452" y="-1326" fill="#ff3737" stroke-linejoin="round" stroke-width="10" ry="40" transform="scale(-1)"/></mask><filter id="a" color-interpolation-filters="sRGB"><feGaussianBlur result="blur" stdDeviation="2.51 2.51"/></filter></defs><g transform="translate(0 -652)"><rect width="300.1" height="400.8" y="652" fill="#1e1e1e" ry="40"/><path fill="#fff" fill-opacity=".2" fill-rule="evenodd" d="M-5 775c-5-33-12-101 4-123 20-26 235-20 264 2 13 9-193 9-216 38-23 27-46 126-52 83Z" filter="url(#a)" mask="url(#b)"/><path fill-rule="evenodd" d="M152 1025c-4-9-11-68 5-91 20-26 219-16 232-10 11 6-179 1-205 35-22 30-27 83-32 66z" filter="url(#a)" mask="url(#c)" transform="rotate(180 226 989)"/></g></svg>