<svg xmlns="http://www.w3.org/2000/svg" width="300" height="400"><path fill="#f0a023" d="M275 756a106 106 0 0 1-32 79 579 579 0 0 1-72 52v56h-45v-77a3151 3151 0 0 0 35-20c13-8 24-15 32-23 9-9 17-18 22-27 6-10 9-22 9-36 0-19-7-33-20-43-13-9-29-14-50-14-33 1-79 14-108 41h-2v-52c31-22 81-32 114-32 36 0 65 9 86 26 21 18 31 41 31 70zm-100 289h-52v-54h52z" font-family="sans-serif" font-size="519.3" font-weight="400" letter-spacing="0" style="line-height:125%" transform="translate(0 -652)" word-spacing="0"/></svg>