<svg xmlns="http://www.w3.org/2000/svg" width="300" height="400"><path fill="#fff" fill-rule="evenodd" d="M170 23c-6-1-30 25-36 34-5 7 5 11 9 17 5 8 1 91-8 136l15-2c10-38 17-107 25-113 7-6 23-5 21-13-4-19-20-59-26-59z"/><path fill="#fff" fill-rule="evenodd" d="M114 131c-19 1-28 10-1 14 31 2 98-6 98-15 0-13-9-31-15-30-5 0-15 6-15 13-1 9-50 17-67 18zm30 52c25-11 45-21 69-34 8-5 16 5 14 10-1 4-14 27-3 28-10 8-37 32-52 68l-24-2c10-27 50-71 47-74-5-5-41 13-49 11z"/><path fill="#fff" fill-rule="evenodd" d="M52 228c39-22 125-42 195-43 9-1 30 53 30 62-1 26-44 89-72 126-5 7-18 5-27 0l-46-32c-5-4-3-12 5-8 10 7 32 15 43 17 11 1 47-87 49-101 2-7-7-40-22-41-105 4-140 36-154 37z"/><path fill="#fff" fill-rule="evenodd" d="M29 190c-8 3-5 13-4 19 9 44 45 126 52 131 22 13 30 4 30-5-1-9-29-85-47-125-6-13-22-22-31-20zm33-20c-13-7-9-18 9-11 41 15 57 42 70 94l-15 4c-13-49-28-67-64-87Z"/><path fill="#fff" fill-rule="evenodd" d="M113 278c-16 6-13-18-2-21 72-24 75-22 87-17s16 22 1 21c-31-2-55 3-86 17zm3 16c-10 2-7 18 3 16 26-6 44-9 71-13 8-2 8-23 1-26-10-3-11 3-16 6-11 6-36 10-59 17z"/><path fill="#fff" fill-rule="evenodd" d="M138 260c2 26 5 55 1 81l18 9c3-30 6-63 4-93z"/></svg>