<svg xmlns="http://www.w3.org/2000/svg" width="300" height="400"><path fill="#fff" fill-rule="evenodd" d="M33 160c-6 8 20 28 39 34 6 2 25-18 18-22-21-11-53-17-57-12Z"/><path fill="#fff" fill-rule="evenodd" d="M68 164c-23 88-17 79-57 133-6 16 15 30 25 24 15-10 31-21 41-33 19-23 104-87 162-104 11-4 22-3 32-6 8-2 0-14-4-18-15-16-41-25-49-19-4 2 2 28-3 30-43 22-124 77-161 105l2-7c8-16 17-61 21-108 1-10-7-6-9 3z"/><path fill="#fff" fill-rule="evenodd" d="M112 105c-9-1-15 9-13 18 0 7 1 17 9 25 5 7 1 57 1 99l-2 6c0 8 4 26 9 26 4 0 10-7 11-17 2-46 7-108 10-116 5-10 13-7 14-17 1-13-18-21-39-24z"/><path fill="#fff" fill-rule="evenodd" d="M179 59c-11 0-31 28-31 34 0 8 20 15 19 26 0 65-17 170-4 187 19 23 111 2 117-3 9-8 13-15 10-23-4-8-72 11-102 0-13-5-4-94-4-147 1-12 24-26 25-31 0-10-18-42-30-43z"/></svg>